<svg width="24" height="18" viewBox="0 0 24 18" fill="none" xmlns="http://www.w3.org/2000/svg">
<path d="M5.463 0C6.69 1.749 7.497 3.923 7.68 6.322C7.82183 8.10096 7.59301 9.89 7.008 11.576C7.37606 11.1367 7.82842 10.7756 8.33836 10.514C8.84829 10.2524 9.40548 10.0957 9.977 10.053C10.027 10.049 10.076 10.047 10.125 10.045C10.205 9.554 10.595 6.595 9.148 3.365C8.08 0.979 6.148 0.205 5.463 0ZM7.24 0.0369999C7.24 0.0369999 9.646 1.103 10.566 5.584C11.173 8.539 10.615 10.42 10.164 11.357C11.3917 10.1935 12.9832 9.48915 14.67 9.363C15.53 9.298 16.365 9.383 17.152 9.596C17.052 8.855 16.559 6.182 14.42 3.676C11.157 -0.147 7.24 0.0369999 7.24 0.0369999ZM22.057 9.738L4.137 12.787C4.60124 12.9477 5.0013 13.2537 5.27781 13.6598C5.55433 14.0658 5.69256 14.5502 5.672 15.041C5.6642 15.2482 5.62855 15.4533 5.566 15.651C5.621 15.624 8.255 14.376 11.908 13.617C15.146 12.944 17.631 13.257 18.193 13.344C18.5464 12.5045 19.0734 11.7492 19.7393 11.1278C20.4053 10.5063 21.1951 10.0327 22.057 9.738ZM15.844 13.816C13.526 13.816 11.203 14.311 9.23 14.982C6.362 15.958 6.279 16.33 3.68 16.025C1.844 15.81 0 14.91 0 14.91C0 14.91 2.406 16.88 4.914 17.037C6.9 17.162 8.419 16.215 10.229 15.623C12.89 14.752 14.74 14.653 16.482 14.648C19.361 14.64 24 15.877 24 15.877C24 15.877 21.89 14.833 18.967 14.157C17.9422 13.9259 16.8945 13.8108 15.844 13.816Z" fill="#F8F8F8"/>
</svg>
